<svg width="512" height="512" version="1.1" viewBox="0 0 135.46667 135.46667" xmlns="http://www.w3.org/2000/svg" xmlns:xlink="http://www.w3.org/1999/xlink">
	<defs>
		<linearGradient id="linearGradient5812" x1="11.238" x2="7.4306" y1="1137.9" y2="1778.3" gradientTransform="matrix(-.67463 .67463 -.74796 -.74796 1419.8 1401.7)" gradientUnits="userSpaceOnUse">
			<stop stop-color="#ff2a2a" offset="0"/>
			<stop stop-color="#ff1b1b" offset="1"/>
		</linearGradient>
	</defs>
	<g transform="translate(239.26 51.267)">
		<rect x="-239.26" y="-51.267" width="135.47" height="135.47" ry="2.7093" fill="#fff"/>
		<path transform="matrix(.26458 0 0 .26458 -239.26 -51.267)" d="m123.74 0l50.998 50.998c1.5996 1.5996 1.5996 4.1758 0 5.7754l-117.97 117.97c-1.5996 1.5996-4.1757 1.5996-5.7754 0l-50.998-50.998v16.498l12.225 12.227c0.22866 0.22851 0.22836 0.59571 0 0.82422l-12.225 12.225v24.223l159.89 159.89 2.4746 2.4746 159.89 159.89h24.223l12.225-12.225c0.22866-0.22855 0.59766-0.22851 0.82617 0l12.225 12.225h16.498l-50.998-50.998c-1.5996-1.5996-1.5996-4.1758 0-5.7754l117.97-117.97c1.5996-1.5996 4.1758-1.5996 5.7754 0l50.998 50.998v-16.498l-12.225-12.227c-0.22866-0.22851-0.22866-0.59572 0-0.82422l12.225-12.225v-24.223l-159.89-159.89-2.4746-2.4746-159.89-159.89h-24.223l-12.225 12.225c-0.22866 0.22851-0.59563 0.22854-0.82422 0l-12.227-12.225h-16.498zm62.135 12.879c0.14907-1.7e-5 0.29781 0.057577 0.41211 0.17188l15.674 15.674c0.22867 0.22878 0.22867 0.59572 0 0.82422l-15.674 15.674c-0.22867 0.22851-0.5953 0.22892-0.82422 0l-15.676-15.674c-0.22867-0.22851-0.2287-0.59572 0-0.82422l15.676-15.674c0.11433-0.11426 0.26303-0.17186 0.41211-0.17188zm32.998 32.998c0.14905-4.7e-5 0.29767 0.057431 0.41211 0.17188l15.674 15.674c0.22866 0.22878 0.22866 0.59572 0 0.82422l-15.674 15.674c-0.22866 0.22851-0.59533 0.22889-0.82422 0l-15.674-15.674c-0.22867-0.22878-0.22867-0.59572 0-0.82422l15.674-15.674c0.11433-0.11426 0.26307-0.17183 0.41211-0.17188zm-24.748 26.195c1.0438-8e-6 2.0869 0.39942 2.8867 1.1992l109.72 109.72c1.5996 1.5996 1.5996 4.1738 0 5.7734l-117.97 117.97c-1.5996 1.5996-4.1738 1.5996-5.7734 0l-109.72-109.72c-1.5996-1.5996-1.5996-4.1758 0-5.7754l117.97-117.97c0.79979-0.7998 1.8449-1.1992 2.8887-1.1992zm57.746 6.8027c0.14908-1.1e-5 0.29778 0.05755 0.41211 0.17188l15.676 15.674c0.22828 0.22851 0.22637 0.59572-0.00195 0.82422l-15.674 15.676c-0.22866 0.22851-0.59563 0.22857-0.82422 0l-15.674-15.676c-0.22828-0.22825-0.22862-0.59572 0-0.82422l15.674-15.674c0.11433-0.11426 0.26303-0.17186 0.41211-0.17188zm32.998 32.998c0.14907-2e-5 0.29781 0.05757 0.41211 0.17187l15.676 15.674c0.22866 0.22851 0.22866 0.59767 0 0.82617l-15.676 15.674c-0.22867 0.22851-0.59537 0.22889-0.82422 0l-15.674-15.674c-0.22866-0.22851-0.22866-0.59767 0-0.82617l15.674-15.674c0.11433-0.11425 0.26303-0.17186 0.41211-0.17187zm32.998 32.998c0.14905-4e-5 0.29962 0.05743 0.41407 0.17188l15.674 15.674c0.22867 0.22877 0.22867 0.59767 0 0.82617l-15.674 15.674c-0.22867 0.22851-0.59729 0.22889-0.82618 0l-15.674-15.674c-0.22867-0.22878-0.22867-0.59767 0-0.82617l15.674-15.674c0.11434-0.11426 0.26307-0.17183 0.41211-0.17188zm-288.73 24.75c0.14907-1e-5 0.29782 0.05563 0.41211 0.16993l15.674 15.676c0.22866 0.22877 0.22862 0.59571 0 0.82422l-15.674 15.674c-0.22866 0.22855-0.59533 0.22891-0.82422 0l-15.674-15.674c-0.22866-0.22851-0.22866-0.59572 0-0.82422l15.674-15.676c0.11433-0.11428 0.26304-0.16991 0.41211-0.16993zm321.73 8.248c0.14905-5e-5 0.29964 0.05744 0.41406 0.17188l15.674 15.674c0.22866 0.22851 0.22866 0.59767 0 0.82618l-15.674 15.674c-0.22866 0.22851-0.59732 0.22887-0.82617 0l-15.674-15.674c-0.22828-0.22825-0.2287-0.59768 0-0.82618l15.674-15.674c0.11433-0.11426 0.26306-0.17183 0.41211-0.17188zm-288.73 24.75c0.14904-4e-5 0.29766 0.05743 0.41211 0.17188l15.674 15.674c0.22866 0.22878 0.22866 0.59572 0 0.82422l-15.674 15.674c-0.22866 0.22855-0.59533 0.22889-0.82422 0l-15.674-15.674c-0.22866-0.22877-0.22866-0.59571 0-0.82422l15.674-15.674c0.11433-0.11428 0.26306-0.17184 0.41211-0.17188zm263.99 1.4453c1.0438 0 2.0888 0.40136 2.8887 1.2012l109.72 109.72c1.5996 1.5996 1.5996 4.1758 0 5.7754l-117.97 117.97c-1.5996 1.5996-4.1758 1.5996-5.7754 0l-109.72-109.72c-1.5996-1.5996-1.5996-4.1738 0-5.7734l117.97-117.97c0.79978-0.79979 1.8429-1.2012 2.8867-1.2012zm57.748 6.8047c0.14904-5e-5 0.29768 0.0555 0.41211 0.16992l15.674 15.676c0.22866 0.22878 0.22862 0.59572 0 0.82422l-15.674 15.674c-0.22866 0.22851-0.59755 0.22862-0.82617 0l-15.674-15.674c-0.22828-0.22824-0.2287-0.59572 0-0.82422l15.674-15.676c0.11433-0.11425 0.26502-0.16987 0.41406-0.16992zm-288.74 24.748c0.14908-1e-5 0.29778 0.05755 0.41211 0.17187l15.676 15.674c0.22866 0.22851 0.22866 0.59572 0 0.82422l-15.676 15.674c-0.22866 0.22851-0.59563 0.22859-0.82422 0l-15.674-15.674c-0.22828-0.22825-0.22866-0.59571 0-0.82422l15.674-15.674c0.11433-0.11427 0.26303-0.17187 0.41211-0.17187zm321.73 8.25c0.14905-5e-5 0.29768 0.05743 0.41211 0.17187l15.674 15.674c0.22867 0.22859 0.22867 0.59572 0 0.82422l-15.674 15.674c-0.22866 0.22851-0.59556 0.22862-0.82422 0l-15.676-15.674c-0.22866-0.22878-0.22866-0.59572 0-0.82422l15.676-15.674c0.11433-0.11425 0.26306-0.17183 0.41211-0.17187zm-288.74 24.748c0.14908-1e-5 0.29977 0.05758 0.41406 0.17188l15.674 15.674c0.22866 0.22851 0.22866 0.59571 0 0.82422l-15.674 15.676c-0.22866 0.22855-0.59728 0.22888-0.82617 0l-15.674-15.676c-0.22866-0.22851-0.2287-0.59572 0-0.82422l15.674-15.674c0.11433-0.11427 0.26303-0.17186 0.41211-0.17188zm321.73 8.25c0.14909 0 0.29784 0.05763 0.41211 0.17188l15.674 15.674c0.22866 0.22858 0.2287 0.59571 0 0.82422l-15.674 15.674c-0.22866 0.22851-0.5957 0.22851-0.82422 0l-15.674-15.674c-0.22866-0.22855-0.2287-0.59572 0-0.82422l15.674-15.674c0.11434-0.11426 0.26303-0.17187 0.41211-0.17188zm-288.74 24.748c0.14904-4e-5 0.29961 0.05743 0.41406 0.17188l15.674 15.674c0.22866 0.22878 0.22866 0.59767 0 0.82618l-15.674 15.674c-0.22866 0.22855-0.59728 0.22889-0.82617 0l-15.674-15.674c-0.22866-0.22878-0.2287-0.59767 0-0.82618l15.674-15.674c0.11433-0.11428 0.26306-0.17184 0.41211-0.17188zm321.73 8.25c0.14909 0 0.29784 0.05762 0.41211 0.17188l15.674 15.674c0.22866 0.22855 0.22866 0.59572 0 0.82422l-15.674 15.676c-0.22866 0.22851-0.59575 0.22851-0.82422 0l-15.674-15.676c-0.22866-0.22854-0.22866-0.59572 0-0.82422l15.674-15.674c0.11433-0.11426 0.26302-0.17188 0.41211-0.17188zm-288.73 24.748c0.14904-5e-5 0.29768 0.05744 0.41211 0.17187l15.674 15.674c0.22867 0.22851 0.22867 0.59767 0 0.82617l-15.674 15.674c-0.22867 0.22855-0.59733 0.22886-0.82618 0l-15.674-15.674c-0.22829-0.22824-0.2287-0.59767 0-0.82617l15.674-15.674c0.11433-0.11427 0.26503-0.17183 0.41407-0.17187zm32.998 32.998c0.14904-5e-5 0.29769 0.05745 0.41211 0.17187l15.674 15.674c0.22866 0.22877 0.22862 0.59766 0 0.82617l-15.674 15.674c-0.22866 0.22855-0.59559 0.22864-0.82422 0l-15.676-15.674c-0.22828-0.22825-0.22836-0.59767 0-0.82617l15.676-15.674c0.11433-0.11427 0.26307-0.17183 0.41211-0.17187zm32.998 33c0.14905-5e-5 0.29768 0.05547 0.41211 0.16992l15.674 15.676c0.22866 0.22858 0.22866 0.59571 0 0.82422l-15.674 15.674c-0.22866 0.22852-0.5956 0.22863-0.82422 0l-15.674-15.674c-0.22866-0.22878-0.22866-0.59572 0-0.82422l15.674-15.676c0.11433-0.11428 0.26306-0.16988 0.41211-0.16992zm32.998 32.998c0.14909 0 0.29783 0.05761 0.41211 0.17188l15.674 15.674c0.22867 0.22859 0.22833 0.59572 0 0.82422l-15.674 15.674c-0.22867 0.22855-0.59571 0.2285-0.82422 0l-15.674-15.674c-0.22866-0.22854-0.2287-0.59571 0-0.82422l15.674-15.674c0.11433-0.11428 0.26302-0.17188 0.41211-0.17188zm32.998 32.998c0.14909 0 0.29784 0.0576 0.41211 0.17187l15.676 15.674c0.22867 0.22855 0.22867 0.59572 0 0.82422l-15.676 15.674c-0.22866 0.22851-0.59574 0.2285-0.82422 0l-15.674-15.674c-0.22867-0.22855-0.22867-0.59572 0-0.82422l15.674-15.674c0.11434-0.11427 0.26303-0.17187 0.41211-0.17187z" fill="url(#linearGradient5812)"/>
	</g>
</svg>
