<svg width="16" height="19" version="1.1" viewBox="0 0 19.2 22.8" xmlns="http://www.w3.org/2000/svg">
	<path d="m9.5534 0.0012926a1.0951 1.0923 0 0 0 -0.21671 0.028441 1.0951 1.0923 0 0 0 -0.10265 0.03413 1.0951 1.0923 0 0 0 -0.37354 0.22469 1.0951 1.0923 0 0 0 -0.14542 0.16212 1.0951 1.0923 0 0 0 -0.05988 0.093857 1.0951 1.0923 0 0 0 -0.13972 0.40956 1.0951 1.0923 0 0 0 -0.0086 0.1223v14.354l-6.6466-6.6326a1.0951 1.0923 0 0 0 -0.082691 -0.071103 1.0951 1.0923 0 0 0 -0.18534 -0.11945 1.0951 1.0923 0 0 0 -0.099799 -0.042664 1.0951 1.0923 0 0 0 -0.43057 -0.073944 1.0951 1.0923 0 0 0 -0.21386 0.028439 1.0951 1.0923 0 0 0 -0.20815 0.068263 1.0951 1.0923 0 0 0 -0.18819 0.11092 1.0951 1.0923 0 0 0 -0.44197 0.7281 1.0951 1.0923 0 0 0 -0.00855 0.10808 1.0951 1.0923 0 0 0 0.034217 0.32423 1.0951 1.0923 0 0 0 0.034217 0.10523 1.0951 1.0923 0 0 0 0.15968 0.28442 1.0951 1.0923 0 0 0 0.071286 0.08249 1.0951 1.0923 0 0 0 0.00855 0.01137l8.5172 8.4955a1.0951 1.0923 0 0 0 0.36498 0.23322 1.0951 1.0923 0 0 0 0.31936 0.07109 1.0951 1.0923 0 0 0 0.0029 0 1.0951 1.0923 0 0 0 0.08269 0.0028 1.0951 1.0923 0 0 0 0.04277 -0.0028 1.0951 1.0923 0 0 0 0.03422 0 1.0951 1.0923 0 0 0 0.1112 -0.0084 1.0951 1.0923 0 0 0 0.40775 -0.15358 1.0951 1.0923 0 0 0 0.18249 -0.14221l8.5172-8.4955a1.0951 1.0923 0 0 0 0.13687 -0.17065 1.0951 1.0923 0 0 0 0.09695 -0.1934 1.0951 1.0923 0 0 0 0.05702 -0.21047 1.0951 1.0923 0 0 0 0.01426 -0.11092 1.0951 1.0923 0 0 0 0.0028 -0.10808 1.0951 1.0923 0 0 0 -0.02851 -0.21616 1.0951 1.0923 0 0 0 -0.11976 -0.30148 1.0951 1.0923 0 0 0 -0.05988 -0.09101 1.0951 1.0923 0 0 0 -0.06837 -0.08533 1.0951 1.0923 0 0 0 -0.34787 -0.26166 1.0951 1.0923 0 0 0 -0.31366 -0.093851 1.0951 1.0923 0 0 0 -0.10835 -0.00851 1.0951 1.0923 0 0 0 -0.32506 0.034132 1.0951 1.0923 0 0 0 -0.2053 0.076796 1.0951 1.0923 0 0 0 -0.09695 0.054038 1.0951 1.0923 0 0 0 -0.08841 0.062571 1.0951 1.0923 0 0 0 -0.09409 0.079636l-6.6467 6.6297v-14.352a1.0951 1.0923 0 0 0 -0.0542 -0.32139 1.0951 1.0923 0 0 0 -0.03992 -0.10239 1.0951 1.0923 0 0 0 -0.1055 -0.19056 1.0951 1.0923 0 0 0 -0.06844 -0.085324 1.0951 1.0923 0 0 0 -0.55032 -0.3413 1.0951 1.0923 0 0 0 -0.1055 -0.022753 1.0951 1.0923 0 0 0 -0.21956 -0.011376zm-8.4687 20.612a1.0951 1.0923 0 0 0 -0.21671 0.02558 1.0951 1.0923 0 0 0 -0.1055 0.02844 1.0951 1.0923 0 0 0 -0.10265 0.03981 1.0951 1.0923 0 0 0 -0.35643 0.25029 1.0951 1.0923 0 0 0 -0.068434 0.08249 1.0951 1.0923 0 0 0 -0.15968 0.28442 1.0951 1.0923 0 0 0 -0.068434 0.42947 1.0951 1.0923 0 0 0 0.00855 0.10807 1.0951 1.0923 0 0 0 0.054177 0.21047 1.0951 1.0923 0 0 0 0.094097 0.19909 1.0951 1.0923 0 0 0 0.13117 0.17349 1.0951 1.0923 0 0 0 0.076988 0.07679 1.0951 1.0923 0 0 0 0.27374 0.17634 1.0951 1.0923 0 0 0 0.20815 0.0711 1.0951 1.0923 0 0 0 0.10835 0.01992 1.0951 1.0923 0 0 0 0.12261 0.0114h17.032a1.0951 1.0923 0 0 0 0.11121 -0.0084 1.0951 1.0923 0 0 0 0.1055 -0.01992 1.0951 1.0923 0 0 0 0.3992 -0.17349 1.0951 1.0923 0 0 0 0.16538 -0.14221 1.0951 1.0923 0 0 0 0.07127 -0.08533 1.0951 1.0923 0 0 0 0.11406 -0.18487 1.0951 1.0923 0 0 0 0.04277 -0.09954 1.0951 1.0923 0 0 0 0.05702 -0.21047 1.0951 1.0923 0 0 0 0.01426 -0.21616 1.0951 1.0923 0 0 0 -0.15683 -0.51764 1.0951 1.0923 0 0 0 -0.13117 -0.17634 1.0951 1.0923 0 0 0 -0.07985 -0.07395 1.0951 1.0923 0 0 0 -0.08555 -0.0711 1.0951 1.0923 0 0 0 -0.09125 -0.05689 1.0951 1.0923 0 0 0 -0.09409 -0.05121 1.0951 1.0923 0 0 0 -0.211 -0.07109 1.0951 1.0923 0 0 0 -0.1055 -0.01991 1.0951 1.0923 0 0 0 -0.11121 -0.0084 1.0951 1.0923 0 0 0 -0.01426 0z" color="#000000" color-rendering="auto" dominant-baseline="auto" fill="#fff" image-rendering="auto" shape-rendering="auto" solid-color="#000000" style="font-feature-settings:normal;font-variant-alternates:normal;font-variant-caps:normal;font-variant-ligatures:normal;font-variant-numeric:normal;font-variant-position:normal;isolation:auto;mix-blend-mode:normal;shape-padding:0;text-decoration-color:#000000;text-decoration-line:none;text-decoration-style:solid;text-indent:0;text-orientation:mixed;text-transform:none;white-space:normal"/>
</svg>
