<svg version="1.1" viewBox="0 0 20 20" xmlns="http://www.w3.org/2000/svg">
	<path d="m11.086 10 8.6858-8.6873c0.29999-0.30004 0.29999-0.7878 0-1.0878-0.29999-0.30004-0.78766-0.30004-1.0876 0l-8.6858 8.6873-8.6858-8.6873c-0.29999-0.30004-0.78766-0.30004-1.0877 0-0.29999 0.30004-0.29999 0.7878 0 1.0878l8.6858 8.6873-8.6858 8.6873c-0.29999 0.30004-0.29999 0.7878 0 1.0878 0.15076 0.15079 0.34768 0.22465 0.54459 0.22465 0.19692 0 0.39383-0.0754 0.54459-0.22465l8.6858-8.6873 8.6858 8.6873c0.15076 0.15079 0.34768 0.22465 0.5446 0.22465 0.19691 0 0.39383-0.0754 0.54459-0.22465 0.29999-0.30004 0.29999-0.7878 0-1.0878l-8.6858-8.6873z" fill="#fff" stroke-width="1.5385"/>
</svg>
