<svg version="1.1" viewBox="0 0 15 15" xmlns="http://www.w3.org/2000/svg">
	<path d="m3.1251 5.0001c1.0338 0 1.875-0.84125 1.875-1.875v-2.5c0-0.345-0.28-0.625-0.625-0.625s-0.625 0.28-0.625 0.625v2.1855l-2.6133-2.6152c-0.26051-0.26051-0.6809-0.26051-0.94141 0s-0.26051 0.6809 0 0.94141l2.6152 2.6133h-2.1855c-0.345 0-0.625 0.28-0.625 0.625s0.28 0.625 0.625 0.625z" fill="#fff" stroke-width="1.25"/>
	<path d="m14.334 15c0.16999 0 0.34045-0.06506 0.4707-0.19531 0.2605-0.26051 0.2605-0.6809 0-0.94141l-2.6152-2.6133h2.1855c0.345 0 0.625-0.28 0.625-0.625s-0.28-0.625-0.625-0.625h-2.5c-1.0338 0-1.875 0.84125-1.875 1.875v2.5c0 0.345 0.28 0.625 0.625 0.625s0.625-0.28 0.625-0.625v-2.1855l2.6133 2.6152c0.13025 0.13025 0.30072 0.19531 0.4707 0.19531z" fill="#fff" stroke-width="1.25"/>
</svg>
